<svg version="1.2" xmlns="http://www.w3.org/2000/svg" viewBox="0 0 1914 449" width="1914" height="449">
	<title>Untitled-1</title>
	<defs>
		<filter x="-50%" y="-50%" width="200%" height="200%" id="f1" ><feDropShadow dx="15.426902632476946" dy="18.385066634855473" stdDeviation="0" flood-color="#000000" flood-opacity=".8"/></filter>
	</defs>
	<style>
		.s0 { filter: url(#f1);fill: #f26522;stroke: #000000;stroke-width: 0 } 
	</style>
	<path id="Rectangle 1" class="s0" d="m20.5 32h1872c0.3 0 0.5 0.2 0.5 0.5v377c0 0.3-0.2 0.5-0.5 0.5h-1872c-0.3 0-0.5-0.2-0.5-0.5v-377c0-0.3 0.2-0.5 0.5-0.5z" />
	<path id="Fetcher" fill="#000000" aria-label="Fetcher"  d="m226.07 110.14h181.15v36.25h-144.92v72.5h108.69v36.24h-108.69v108.75h-36.23zm271.73 108.74h-18.12v18.12h108.7v-18.12h-18.12v-18.13h-72.46zm72.46 90.62h54.35v18.13h-18.12v18.12h-18.11v18.12h-108.7v-18.12h-18.11v-18.12h-18.12v-126.87h18.12v-18.12h18.11v-18.13h108.7v18.13h18.11v18.12h18.12v54.37h-18.12v18.13h-126.81v36.24h18.12v18.13h72.46zm217.39 0v18.12h18.11v36.25h-36.23v-18.13h-18.11v-18.12h-18.12v-126.87h-36.23v-36.24h36.23v-54.37h36.23v54.37h36.23v36.24h-36.23v108.75zm217.39 0h18.11v-18.13h36.23v36.25h-18.11v18.12h-18.12v18.13h-108.69v-18.13h-18.12v-18.12h-18.11v-126.87h18.11v-18.12h18.12v-18.12h108.69v18.12h18.12v18.12h18.11v36.25h-36.23v-18.12h-18.11v-18.13h-72.46v18.13h-18.12v90.62h18.12v18.12h72.46zm144.92-54.37h-18.11v108.74h-36.24v-253.73h36.24v90.62h18.11v-18.13h18.12v-18.12h54.34v18.12h18.12v18.13h18.11v18.12h18.12v144.99h-36.23v-126.86h-18.12v-18.13h-18.11v-18.12h-18.12v18.12h-18.11v18.13h-18.12zm217.39-36.25h-18.12v18.12h108.69v-18.12h-18.11v-18.13h-72.46zm72.46 90.62h54.34v18.13h-18.11v18.12h-18.12v18.12h-108.69v-18.12h-18.11v-18.12h-18.12v-126.87h18.12v-18.12h18.11v-18.13h108.69v18.13h18.12v18.12h18.11v54.37h-18.11v18.13h-126.81v36.24h18.12v18.13h72.46zm144.92-54.37h-18.11v108.74h-36.23v-199.36h36.23v36.24h18.11v-18.12h18.12v-18.12h72.46v18.12h18.12v18.12h18.11v36.25h-36.23v-18.12h-18.12v-18.13h-36.23v18.13h-18.11v18.12h-18.12z" />
	<path id="Fetcher" fill="#ffffff" aria-label="Fetcher"  d="m214.07 97.14h181.15v36.25h-144.92v72.5h108.69v36.24h-108.69v108.75h-36.23zm271.73 108.74h-18.12v18.12h108.7v-18.12h-18.12v-18.13h-72.46zm72.46 90.62h54.35v18.13h-18.12v18.12h-18.11v18.12h-108.7v-18.12h-18.11v-18.12h-18.12v-126.87h18.12v-18.12h18.11v-18.13h108.7v18.13h18.11v18.12h18.12v54.37h-18.12v18.13h-126.81v36.24h18.12v18.13h72.46zm217.39 0v18.12h18.11v36.25h-36.23v-18.13h-18.11v-18.12h-18.12v-126.87h-36.23v-36.24h36.23v-54.37h36.23v54.37h36.23v36.24h-36.23v108.75zm217.39 0h18.11v-18.13h36.23v36.25h-18.11v18.12h-18.12v18.13h-108.69v-18.13h-18.12v-18.12h-18.11v-126.87h18.11v-18.12h18.12v-18.12h108.69v18.12h18.12v18.12h18.11v36.25h-36.23v-18.12h-18.11v-18.13h-72.46v18.13h-18.12v90.62h18.12v18.12h72.46zm144.92-54.37h-18.11v108.74h-36.24v-253.73h36.24v90.62h18.11v-18.13h18.12v-18.12h54.34v18.12h18.12v18.13h18.11v18.12h18.12v144.99h-36.23v-126.86h-18.12v-18.13h-18.11v-18.12h-18.12v18.12h-18.11v18.13h-18.12zm217.39-36.25h-18.12v18.12h108.69v-18.12h-18.11v-18.13h-72.46zm72.46 90.62h54.34v18.13h-18.11v18.12h-18.12v18.12h-108.69v-18.12h-18.11v-18.12h-18.12v-126.87h18.12v-18.12h18.11v-18.13h108.69v18.13h18.12v18.12h18.11v54.37h-18.11v18.13h-126.81v36.24h18.12v18.13h72.46zm144.92-54.37h-18.11v108.74h-36.23v-199.36h36.23v36.24h18.11v-18.12h18.12v-18.12h72.46v18.12h18.12v18.12h18.11v36.25h-36.23v-18.12h-18.12v-18.13h-36.23v18.13h-18.11v18.12h-18.12z" />
</svg>